<svg xmlns="http://www.w3.org/2000/svg" width="30.252" height="35" viewBox="0 0 30.252 35">
  <g id="notification" transform="translate(-22.503)">
    <path id="Path_5" data-name="Path 5" d="M52.755,22.693H49.6V14.164A9.862,9.862,0,0,0,42.73,4.778,4.924,4.924,0,0,0,37.815,0h-.083a4.925,4.925,0,0,0-4.913,4.69,9.863,9.863,0,0,0-7.164,9.474v8.529H22.5V30.78H32.681a5.011,5.011,0,0,0,9.9,0H52.755V22.693ZM37.731,1.582h.083a3.342,3.342,0,0,1,3.3,2.83,9.885,9.885,0,0,0-1.354-.094H35.5a9.9,9.9,0,0,0-1.059.057A3.341,3.341,0,0,1,37.731,1.582Zm-.1,31.835a3.434,3.434,0,0,1-3.335-2.637h6.671A3.434,3.434,0,0,1,37.629,33.418ZM51.173,29.2H24.085V24.275h3.151V14.164A8.272,8.272,0,0,1,35.5,5.9h4.26a8.272,8.272,0,0,1,8.263,8.263V24.275h3.151Z" transform="translate(0 0)" fill="#fdfdfd"/>
  </g>
</svg>
