<svg xmlns="http://www.w3.org/2000/svg" width="26.415" height="35" viewBox="0 0 26.415 35">
  <g id="report" transform="translate(-22.585)">
    <g id="Group_2" data-name="Group 2" transform="translate(22.585)">
      <g id="Group_1" data-name="Group 1" transform="translate(0)">
        <path id="Path_6" data-name="Path 6" d="M42.871,0H23.245a.66.66,0,0,0-.66.66V34.34a.66.66,0,0,0,.66.66H48.34a.66.66,0,0,0,.66-.66V6.487C49,4.183,45.047,0,42.871,0Zm4.809,33.679H23.906V1.321H42.871c1.483,0,4.809,3.573,4.809,5.166Z" transform="translate(-22.585)" fill="#fdfdfd"/>
        <path id="Path_7" data-name="Path 7" d="M49.1,32.18a5.666,5.666,0,1,0-5.666-5.666A5.673,5.673,0,0,0,49.1,32.18Zm0-9.916a4.223,4.223,0,0,1,4.213,4.783l-3.684-.552-2.307-3.836A4.215,4.215,0,0,1,49.1,22.264Zm-2.949,1.2,2.436,4.05a.709.709,0,0,0,.5.336l3.806.571a4.246,4.246,0,1,1-6.744-4.956Z" transform="translate(-39.75 -16.597)" fill="#fdfdfd"/>
        <rect id="Rectangle_14" data-name="Rectangle 14" width="14.893" height="1.417" transform="translate(4.251 17.121)" fill="#fdfdfd"/>
        <rect id="Rectangle_15" data-name="Rectangle 15" width="9.916" height="1.417" transform="translate(4.442 20.413)" fill="#fdfdfd"/>
        <rect id="Rectangle_16" data-name="Rectangle 16" width="12.749" height="1.417" transform="translate(4.348 23.706)" fill="#fdfdfd"/>
      </g>
    </g>
  </g>
</svg>
