<svg xmlns="http://www.w3.org/2000/svg" width="38.679" height="34.511" viewBox="0 0 38.679 34.511">
  <g id="transfer" transform="translate(-0.469 -26.439)">
    <g id="Group_3" data-name="Group 3" transform="translate(0 25.95)">
      <path id="XMLID_798_" d="M316.109,276.9v-1.469a1.043,1.043,0,0,0-.375-.8,17.033,17.033,0,0,0-3.045-1.957.09.09,0,0,1-.054-.083v-2.064a.958.958,0,0,0,.428-.8v-2.141a1.927,1.927,0,0,0-1.927-1.927h-.464a1.927,1.927,0,0,0-1.927,1.927v2.141a.973.973,0,0,0,.428.8v2.064a.084.084,0,0,1-.054.083,16.676,16.676,0,0,0-3.045,1.957,1.043,1.043,0,0,0-.375.8V276.9" transform="translate(-277.502 -242.439)" fill="#fdfdfd"/>
      <path id="Path_8" data-name="Path 8" d="M88.423,234.35a.725.725,0,0,0-.723.723v2.858a6.184,6.184,0,0,0,6.178,6.178h9.084L101.77,245.3a.724.724,0,0,0,0,1.016.71.71,0,0,0,1.016,0L105.2,243.9a.71.71,0,0,0,0-1.016l-2.414-2.414a.719.719,0,0,0-1.016,1.016l1.191,1.191H93.878a4.748,4.748,0,0,1-4.74-4.74v-2.858A.715.715,0,0,0,88.423,234.35Z" transform="translate(-81.413 -216.924)" fill="#fdfdfd"/>
      <path id="Path_9" data-name="Path 9" d="M181.314,76.772a.708.708,0,0,0,1.014,0,.722.722,0,0,0,0-1.014l-1.188-1.188h9.1a4.737,4.737,0,0,1,4.73,4.73v2.852a.721.721,0,0,0,1.442,0V79.3a6.171,6.171,0,0,0-6.164-6.164h-9.1l1.188-1.188a.717.717,0,1,0-1.014-1.014l-2.408,2.408a.708.708,0,0,0,0,1.014Z" transform="translate(-163.012 -69.576)" fill="#fdfdfd"/>
      <path id="Path_10" data-name="Path 10" d="M.6,39.418a.593.593,0,0,0,.591-.591v-1.6A.554.554,0,0,1,1.39,36.8a18.226,18.226,0,0,1,3.21-2.06.7.7,0,0,0,.39-.624V31.862a.581.581,0,0,0-.26-.487.467.467,0,0,1-.208-.39V28.646a1.521,1.521,0,0,1,1.514-1.52h.5a1.517,1.517,0,0,1,1.514,1.52v2.339a.475.475,0,0,1-.208.39.59.59,0,0,0-.26.487v2.254a.7.7,0,0,0,.39.624,17.744,17.744,0,0,1,3.21,2.06.544.544,0,0,1,.195.422v1.6a.591.591,0,0,0,1.182,0v-1.6a1.711,1.711,0,0,0-.63-1.332,19.24,19.24,0,0,0-3.171-2.073V32.135a1.638,1.638,0,0,0,.468-1.15V28.646a2.7,2.7,0,0,0-2.7-2.7h-.5a2.7,2.7,0,0,0-2.7,2.7v2.339a1.638,1.638,0,0,0,.468,1.15v1.683A19.24,19.24,0,0,0,.63,35.891,1.722,1.722,0,0,0,0,37.222v1.6A.609.609,0,0,0,.6,39.418Z" transform="translate(0.469 -25.461)" fill="#fdfdfd"/>
      <path id="Path_11" data-name="Path 11" d="M297.177,265.65a1.576,1.576,0,0,0-.577,1.219v1.469a.541.541,0,0,0,1.083,0V266.87a.507.507,0,0,1,.178-.387A16.684,16.684,0,0,1,300.8,264.6a.642.642,0,0,0,.357-.571v-2.064a.532.532,0,0,0-.238-.446.427.427,0,0,1-.19-.357v-2.141a1.392,1.392,0,0,1,1.386-1.392h.458a1.394,1.394,0,0,1,1.392,1.392v2.141a.435.435,0,0,1-.19.357.54.54,0,0,0-.238.446v2.064a.638.638,0,0,0,.357.571,16.244,16.244,0,0,1,2.938,1.885.5.5,0,0,1,.178.387v1.469a.541.541,0,0,0,1.083,0V266.87a1.566,1.566,0,0,0-.577-1.219,17.615,17.615,0,0,0-2.9-1.9v-1.541a1.5,1.5,0,0,0,.428-1.053v-2.141a2.47,2.47,0,0,0-2.468-2.468h-.458a2.47,2.47,0,0,0-2.468,2.468v2.141a1.5,1.5,0,0,0,.428,1.053v1.541A18.145,18.145,0,0,0,297.177,265.65Z" transform="translate(-268.943 -233.88)" fill="#fdfdfd"/>
    </g>
  </g>
</svg>
