<svg xmlns="http://www.w3.org/2000/svg" width="51.827" height="35" viewBox="0 0 51.827 35">
  <g id="workflow" transform="translate(-1709 -1325)">
    <g id="workflow-2" data-name="workflow" transform="translate(1709 1325)">
      <path id="Path_12" data-name="Path 12" d="M51.827,98.393V91.849a.722.722,0,0,0-.722-.722H45.282V82.29a.722.722,0,0,0-.722-.722H26.635V74.286h8a.722.722,0,0,0,.722-.722V64.837a.722.722,0,0,0-.722-.722H17.187a.722.722,0,0,0-.722.722v8.727a.722.722,0,0,0,.722.722h8v7.282H7.266a.722.722,0,0,0-.722.722v8.837H.722A.722.722,0,0,0,0,91.849v6.544a.722.722,0,0,0,.722.722H13.811a.722.722,0,0,0,.722-.722V91.849a.722.722,0,0,0-.722-.722H7.988V83.012h17.2v8.114H19.368a.722.722,0,0,0-.722.722v6.544a.722.722,0,0,0,.722.722h13.09a.722.722,0,0,0,.722-.722V91.849a.722.722,0,0,0-.722-.722H26.635V83.012h17.2v8.114H38.015a.722.722,0,0,0-.722.722v6.544a.722.722,0,0,0,.722.722H51.1A.722.722,0,0,0,51.827,98.393ZM17.909,72.842V65.559H33.917v7.282H17.909Zm-4.82,19.729v5.1H1.444v-5.1H13.089Zm18.646,0v5.1H20.09v-5.1H31.736Zm18.647,5.1H38.737v-5.1H50.382Z" transform="translate(0 -64.115)" fill="#fdfdfd"/>
    </g>
  </g>
</svg>
