<?xml version="1.0" encoding="iso-8859-1"?>
<!-- Generator: Adobe Illustrator 19.0.0, SVG Export Plug-In . SVG Version: 6.00 Build 0)  -->
<svg version="1.1" id="Layer_1" xmlns="http://www.w3.org/2000/svg" xmlns:xlink="http://www.w3.org/1999/xlink" x="0px" y="0px"
	 viewBox="0 0 522.667 522.667" style="enable-background:new 0 0 522.667 522.667;" xml:space="preserve">
<g>
	<g>
		<g>
			<path d="M309.333,240h149.333c5.888,0,10.667-4.779,10.667-10.667s-4.779-10.667-10.667-10.667H309.333
				c-5.888,0-10.667,4.779-10.667,10.667S303.445,240,309.333,240z"/>
			<path d="M221.824,368H53.333c-17.643,0-32-14.357-32-32V90.667h469.333v209.344c0,5.888,4.779,10.667,10.667,10.667
				c5.888,0,10.667-4.779,10.667-10.667V58.667c0-29.419-23.915-53.333-53.333-53.333H53.333C23.915,5.333,0,29.248,0,58.667V336
				c0,29.419,23.915,53.333,53.333,53.333h168.491c5.909,0,10.667-4.779,10.667-10.667C232.491,372.779,227.712,368,221.824,368z
				 M21.333,58.667c0-17.643,14.357-32,32-32h405.333c17.643,0,32,14.357,32,32v10.667H21.333V58.667z"/>
			<path d="M309.333,176h64c5.888,0,10.667-4.779,10.667-10.667s-4.779-10.667-10.667-10.667h-64
				c-5.888,0-10.667,4.779-10.667,10.667S303.445,176,309.333,176z"/>
			<path d="M458.667,152.811H416c-5.888,0-10.667,4.779-10.667,10.667s4.779,10.667,10.667,10.667h42.667
				c5.888,0,10.667-4.779,10.667-10.667S464.555,152.811,458.667,152.811z"/>
			<path d="M405.333,410.667h-42.667c-5.888,0-10.667,4.779-10.667,10.667c0,5.888,4.779,10.667,10.667,10.667h42.667
				c5.888,0,10.667-4.779,10.667-10.667C416,415.445,411.221,410.667,405.333,410.667z"/>
			<path d="M508.267,376.107c1.493-1.259,14.4-12.8,14.4-29.44c0-8.917-6.635-15.147-16.128-15.147
				c-5.355,0-14.528,2.752-22.421,7.296c-10.432-22.016-27.499-41.536-39.723-47.616c-8.085-4.032-35.627-8.533-60.395-8.533
				s-52.309,4.501-60.416,8.533c-12.181,6.08-29.248,25.6-39.701,47.616c-7.915-4.544-17.088-7.296-22.443-7.296
				c-4.053,0-7.531,1.045-10.325,3.157c-3.712,2.795-5.781,7.061-5.781,11.989c0,16.64,12.928,28.181,14.4,29.44
				c1.152,0.981,2.475,1.6,3.84,2.027c-5.099,14.165-7.573,29.845-7.573,43.2c0,15.936,1.472,43.115,10.667,57.003V496
				c0,11.968,9.365,21.333,21.333,21.333h21.333c11.968,0,21.333-9.365,21.333-21.333v-7.232C343.552,491.989,363.648,496,384,496
				s40.448-4.011,53.333-7.232V496c0,11.968,9.365,21.333,21.333,21.333H480c11.968,0,21.333-9.365,21.333-21.333v-17.664
				C510.528,464.448,512,437.269,512,421.333c0-13.355-2.475-29.056-7.573-43.2C505.792,377.707,507.115,377.088,508.267,376.107z
				 M333.077,310.315C337.067,308.48,359.829,304,384,304s46.933,4.48,50.859,6.272c8.085,4.053,26.859,25.323,34.325,48.512
				C449.131,361.6,401.728,368,384,368s-65.152-6.4-85.205-9.216C306.261,335.595,325.035,314.325,333.077,310.315z
				 M272.832,359.147c-0.683-0.683-1.728-1.792-2.965-3.605c1.408,0.661,2.752,1.408,4.011,2.155
				C273.536,358.187,273.173,358.656,272.832,359.147z M309.312,496.021h-21.333v-10.688h21.333V496.021z M480,496h-21.333v-10.667
				H480V496z M484.907,464H448c-1.131,0-2.261,0.192-3.371,0.533c-0.299,0.107-30.848,10.133-60.629,10.133
				s-60.331-10.027-60.651-10.091c-0.277-0.085-0.576,0-0.875-0.064c-0.811-0.192-1.6-0.491-2.475-0.491h-36.949
				c-2.795-6.379-5.739-21.077-5.739-42.645c0-3.392,0.256-6.997,0.64-10.645c14.336,0.405,31.381,5.248,31.381,10.624
				c0,5.888,4.779,10.667,10.667,10.667s10.667-4.779,10.667-10.667c0-26.069-35.2-30.869-48.533-31.765
				c1.195-3.904,2.624-7.573,4.245-11.029c0.021,0,0.043,0.021,0.064,0.021c2.987,0.427,73.408,10.752,97.557,10.752
				s94.571-10.325,97.557-10.773c0.021,0,0.021-0.021,0.043-0.021c1.621,3.456,3.051,7.125,4.245,11.029
				c-13.333,0.896-48.512,5.717-48.512,31.765c0,5.888,4.779,10.667,10.667,10.667s10.667-4.779,10.667-10.667
				c0-5.483,16.939-10.176,31.36-10.624c0.384,3.648,0.64,7.253,0.64,10.624C490.667,442.923,487.701,457.621,484.907,464z
				 M495.147,359.125c-0.341-0.491-0.683-0.96-1.045-1.429c1.259-0.747,2.624-1.515,4.011-2.176
				C497.067,357.099,496,358.272,495.147,359.125z"/>
			<path d="M258.901,307.84c3.947-4.395,3.563-11.115-0.811-15.061c-7.104-6.379-15.68-10.944-24.789-13.227l-28.629-7.147
				c19.52-4.395,29.845-10.368,30.357-10.688c2.944-1.749,4.736-4.949,5.035-8.384c0.299-3.413-1.216-6.912-3.819-9.152
				c-0.149-0.107-14.549-12.949-14.549-56.597c0-43.989-11.392-66.304-33.856-66.304h-0.384C180.203,114.773,173.739,112,160,112
				c-19.349,0-61.696,19.051-61.696,75.584c0,43.52-14.315,56.427-14.272,56.427c-2.859,2.133-4.437,5.525-4.245,9.067
				c0.171,3.541,2.091,6.763,5.141,8.597c0.533,0.32,10.731,6.336,30.357,10.752l-28.565,7.125
				C60.8,286.037,42.667,309.248,42.667,336c0,5.888,4.779,10.667,10.667,10.667h161.216c5.888,0,10.667-4.779,10.667-10.667
				s-4.779-10.667-10.667-10.667l-148.971-0.021c3.648-12.181,13.483-21.867,26.325-25.067l38.229-9.536
				c3.819-0.96,6.805-3.925,7.765-7.765l3.968-15.829c0.725-2.923,0.192-6.037-1.515-8.533c-1.685-2.517-4.373-4.181-7.381-4.608
				c-11.093-1.536-19.712-3.84-25.835-5.909c6.08-10.923,12.523-29.739,12.523-60.459c0-44.821,33.707-54.251,40.363-54.251
				c9.472,0,10.539,1.067,15.659,6.165c1.984,1.984,4.693,3.115,7.531,3.115h4.651c6.229,0,12.523,13.909,12.523,44.971
				c0,30.677,6.443,49.515,12.501,60.437c-6.165,2.048-14.784,4.373-25.835,5.909c-3.008,0.427-5.675,2.091-7.36,4.608
				c-1.707,2.496-2.24,5.589-1.515,8.533l3.968,15.851c0.96,3.819,3.925,6.805,7.765,7.765l38.229,9.536
				c5.824,1.472,11.115,4.288,15.701,8.405C248.235,312.597,254.976,312.256,258.901,307.84z"/>
		</g>
	</g>
</g>
<g>
</g>
<g>
</g>
<g>
</g>
<g>
</g>
<g>
</g>
<g>
</g>
<g>
</g>
<g>
</g>
<g>
</g>
<g>
</g>
<g>
</g>
<g>
</g>
<g>
</g>
<g>
</g>
<g>
</g>
</svg>
